<svg xmlns="http://www.w3.org/2000/svg" width="24.255" height="24.462" viewBox="0 0 24.255 24.462">
  <g id="Customization_Icon" data-name="Customization Icon" transform="translate(0.649 0.811)">
    <g id="Inactive">
      <g id="Group_3939" data-name="Group 3939" transform="translate(7.459)">
        <path id="Path_982" data-name="Path 982" d="M2436.067,1240.476l-2.994.894a.371.371,0,0,1-.469-.237.379.379,0,0,1,0-.231l.894-3a1.2,1.2,0,0,1,.3-.508l10.7-10.7a2.031,2.031,0,0,1,2.869-.1h0a2.033,2.033,0,0,1-.1,2.87l-10.7,10.7A1.213,1.213,0,0,1,2436.067,1240.476Z" transform="translate(-2432.585 -1226.05)" fill="none" stroke="#fff" stroke-linecap="round" stroke-width="1.3"/>
        <line id="Line_425" data-name="Line 425" x2="2.775" y2="2.775" transform="translate(9.954 2.609)" fill="none" stroke="#fff" stroke-linecap="round" stroke-width="1.3"/>
      </g>
      <path id="Path_983" data-name="Path 983" d="M2437.572,1230.707h-5.995a5.6,5.6,0,0,0-5.6,5.606v10.173a5.606,5.606,0,0,0,5.606,5.607h10.171a5.605,5.605,0,0,0,5.605-5.605v-6" transform="translate(-2425.973 -1229.092)" fill="none" stroke="#fff" stroke-linecap="round" stroke-width="1.3" opacity="0.5"/>
    </g>
  </g>
</svg>
