<svg id="Layer_1" data-name="Layer 1" xmlns="http://www.w3.org/2000/svg" viewBox="0 0 43 43"><defs><style>.cls-1,.cls-3{fill:#5d7d73;}.cls-1{opacity:0.1;}.cls-1,.cls-2,.cls-3,.cls-6{isolation:isolate;}.cls-3{font-size:6px;font-family:Moderat-Bold, Moderat;font-weight:700;letter-spacing:0.07em;}.cls-4{letter-spacing:0.04em;}.cls-5{letter-spacing:0.06em;}.cls-6{fill:none;stroke:#5d7d73;stroke-linecap:round;stroke-miterlimit:10;stroke-width:1.7px;opacity:0.4;}</style></defs><rect id="Rectangle_6722" data-name="Rectangle 6722" class="cls-1" width="43" height="43" rx="8"/><g id="Group_21346" data-name="Group 21346"><g id="JPG" class="cls-2"><text class="cls-3" transform="translate(10.22 24.58)">J<tspan class="cls-4" x="3.71" y="0">P</tspan><tspan class="cls-5" x="7.77" y="0">G</tspan></text></g><path id="Path_2464" data-name="Path 2464" class="cls-6" d="M12.3,17.66V15.45a2.13,2.13,0,0,1,2.13-2.13h4a2.31,2.31,0,0,1,1.74.78l.76.85a2.31,2.31,0,0,0,1.74.78h6.16A2.13,2.13,0,0,1,31,17.86h0V28.09a2.13,2.13,0,0,1-2.13,2.13H14.43a2.13,2.13,0,0,1-2.13-2.13"/></g></svg>