<svg xmlns="http://www.w3.org/2000/svg" width="27.783" height="18.888" viewBox="0 0 27.783 18.888">
  <g id="Gold_Pickup_Icon" data-name="Gold Pickup Icon" transform="translate(-2086.245 -406.555)">
    <g id="Active">
      <g id="Group_21321" data-name="Group 21321">
        <path id="Path_4710-2" data-name="Path 4710-2" d="M2102.419,424.793h-8.154a.933.933,0,0,1-.936-.931.918.918,0,0,1,.027-.229l.842-3.37a1.352,1.352,0,0,1,1.312-1.026h5.658a1.354,1.354,0,0,1,1.313,1.026l.842,3.37a.936.936,0,0,1-.681,1.132A.99.99,0,0,1,2102.419,424.793Z" fill="none" stroke="#efd99d" stroke-linecap="round" stroke-width="1.3"/>
        <path id="Path_4711-2" data-name="Path 4711-2" d="M2104.4,419.848a1.355,1.355,0,0,1,1.132-.611h5.656a1.355,1.355,0,0,1,1.314,1.026l.841,3.37a.934.934,0,0,1-.681,1.132.917.917,0,0,1-.227.027h-7.224" fill="none" stroke="#efd99d" stroke-linecap="round" stroke-width="1.3"/>
        <path id="Path_4712-2" data-name="Path 4712-2" d="M2098.37,416.97l.842-3.37a1.353,1.353,0,0,1,1.313-1.026h5.657a1.353,1.353,0,0,1,1.313,1.026l.841,3.37" fill="none" stroke="#efd99d" stroke-linecap="round" stroke-width="1.3"/>
      </g>
      <path id="Path_4756" data-name="Path 4756" d="M2090.905,421.426h-2.571a1.439,1.439,0,0,1-1.439-1.439V408.644a1.439,1.439,0,0,1,1.439-1.439h15.294a1.439,1.439,0,0,1,1.439,1.439v.977" fill="none" stroke="#efd99d" stroke-linecap="round" stroke-width="1.3"/>
      <path id="Path_4757" data-name="Path 4757" d="M2095.349,412.015l-1.473-.4a2.076,2.076,0,0,0-1.095,0l-1.473.4a.589.589,0,0,1-.745-.568V407.2h5.531v4.242A.589.589,0,0,1,2095.349,412.015Z" fill="none" stroke="#efd99d" stroke-linecap="round" stroke-width="1.3" opacity="0.5"/>
    </g>
  </g>
</svg>
