<svg xmlns="http://www.w3.org/2000/svg" width="17.535" height="22.324" viewBox="0 0 17.535 22.324">
  <g id="Help_Center_Icon" data-name="Help Center Icon" transform="translate(-29.918 4.123)">
    <g id="Active">
      <g id="Group_37" data-name="Group 37" transform="translate(31 12.953)">
        <g id="Group_36" data-name="Group 36">
          <g id="Group_35" data-name="Group 35">
            <path id="Path_14" data-name="Path 14" d="M742.846,551.611a8.947,8.947,0,0,1,7.684-4.355h0a8.945,8.945,0,0,1,7.685,4.356" transform="translate(-742.846 -547.256)" fill="none" stroke="#efd99d" stroke-linecap="round" stroke-width="1.3"/>
          </g>
        </g>
      </g>
      <g id="Group_38" data-name="Group 38" transform="translate(33.903)">
        <ellipse id="Ellipse_18" data-name="Ellipse 18" cx="4.782" cy="4.782" rx="4.782" ry="4.782" transform="translate(0)" fill="none" stroke="#efd99d" stroke-linecap="round" stroke-width="1.3"/>
      </g>
      <g id="Group_33085" data-name="Group 33085">
        <path id="Path_14810" data-name="Path 14810" d="M189.694,119.617c-1.1,0-1.992,1.182-1.992,2.639s.892,2.639,1.992,2.639" transform="translate(-157.784 -117.66)" fill="#8b906d"/>
        <path id="Path_14811" data-name="Path 14811" d="M203.245,119.617c1.1,0,1.992,1.182,1.992,2.639s-.892,2.639-1.992,2.639" transform="translate(-157.784 -117.66)" fill="#8b906d"/>
        <path id="Path_14812" data-name="Path 14812" d="M188.968,120.492c0-3.482,3.374-6.305,7.536-6.305s7.536,2.823,7.536,6.305" transform="translate(-157.784 -117.66)" fill="none" stroke="#8b906d" stroke-linecap="round" stroke-width="1.3"/>
      </g>
    </g>
  </g>
</svg>
