<svg xmlns="http://www.w3.org/2000/svg" width="17.775" height="20.95" viewBox="0 0 17.775 20.95">
  <g id="Notification_Icon" data-name="Notification Icon" transform="translate(-347.291 -57.703)">
    <g id="Bell" transform="translate(348.222 58.609)">
      <path id="Path_43" data-name="Path 43" d="M312.42,60.168a2.005,2.005,0,0,0,3.862,0" transform="translate(-306.393 -42.488)" fill="none" stroke="#51716c" stroke-linecap="round" stroke-linejoin="round" stroke-width="1.8" opacity="0.6"/>
      <path id="Path_44" data-name="Path 44" d="M319.258,47.961a5.808,5.808,0,0,0-2.361-.831,5.679,5.679,0,0,0-6.571,4.918l-.408,5.659a1.917,1.917,0,0,1-.478,1.123l-1,1.139a1.226,1.226,0,0,0,1.043,2.006h13.232a1.227,1.227,0,0,0,1.041-2.007l-.517-.588-.484-.549a1.907,1.907,0,0,1-.477-1.123l-.408-5.659a5.258,5.258,0,0,0-2.6-4.1" transform="translate(-308.139 -47.081)" fill="none" stroke="#51716c" stroke-linecap="round" stroke-linejoin="round" stroke-width="1.8"/>
    </g>
  </g>
</svg>
