<svg xmlns="http://www.w3.org/2000/svg" width="16.029" height="16.411" viewBox="0 0 16.029 16.411">
  <g id="Password_Icon" data-name="Password Icon" transform="translate(0.65 0.65)">
    <g id="Group_5465" data-name="Group 5465">
      <g id="Group_5463" data-name="Group 5463">
        <g id="Group_5461" data-name="Group 5461" transform="translate(0 5.793)">
          <path id="Path_2432" data-name="Path 2432" d="M1228.792,519.568a2.825,2.825,0,0,1-1.963.79h-9.062a2.833,2.833,0,0,1-2.833-2.833v-3.651a2.833,2.833,0,0,1,2.833-2.833h9.062a2.833,2.833,0,0,1,2.833,2.833V516" transform="translate(-1214.933 -511.041)" fill="none" stroke="#5d7d73" stroke-linecap="round" stroke-width="1.3"/>
        </g>
        <g id="Group_5462" data-name="Group 5462" transform="translate(3.996)">
          <path id="Path_2433" data-name="Path 2433" d="M1226.074,510.448v-2.559a3.234,3.234,0,0,0-3.234-3.234h-.268a3.234,3.234,0,0,0-3.234,3.234v2.559" transform="translate(-1219.338 -504.655)" fill="none" stroke="#5d7d73" stroke-linecap="round" stroke-width="1.3"/>
        </g>
      </g>
      <g id="Group_5464" data-name="Group 5464" transform="translate(3.997 10.452)">
        <line id="Line_568" data-name="Line 568" x2="6.736" fill="none" stroke="#5d7d73" stroke-linecap="round" stroke-width="1.3" opacity="0.5"/>
      </g>
    </g>
  </g>
</svg>
