<svg xmlns="http://www.w3.org/2000/svg" width="19.888" height="19.888" viewBox="0 0 19.888 19.888">
  <g id="Settings_Icon" data-name="Settings Icon" transform="translate(-23.758 -806.835)">
    <path id="Inactive" d="M3144.721,1409.357l-.675-.172a1.048,1.048,0,0,1-.732-.636c-.059-.16-.124-.319-.195-.474a1.045,1.045,0,0,1,.07-.962l.354-.6a1.081,1.081,0,0,0-.165-1.316l-1.075-1.074a1.08,1.08,0,0,0-1.315-.165l-.6.354a1.045,1.045,0,0,1-.962.07c-.155-.07-.314-.134-.474-.195a1.047,1.047,0,0,1-.636-.732l-.172-.675a1.082,1.082,0,0,0-1.047-.813h-1.521a1.08,1.08,0,0,0-1.047.813l-.172.675a1.05,1.05,0,0,1-.636.732c-.161.06-.319.124-.474.195a1.044,1.044,0,0,1-.962-.07l-.6-.354a1.082,1.082,0,0,0-1.316.165l-1.074,1.074a1.08,1.08,0,0,0-.165,1.316l.354.6a1.05,1.05,0,0,1,.07.962c-.07.155-.135.314-.195.474a1.05,1.05,0,0,1-.732.636l-.674.172a1.081,1.081,0,0,0-.813,1.047v1.52a1.08,1.08,0,0,0,.813,1.047l.674.172a1.05,1.05,0,0,1,.732.636q.089.242.195.474a1.05,1.05,0,0,1-.07.962l-.354.6a1.08,1.08,0,0,0,.165,1.316l1.074,1.075a1.08,1.08,0,0,0,1.316.165l.6-.354a1.049,1.049,0,0,1,.962-.07q.233.105.474.195a1.051,1.051,0,0,1,.636.732l.172.675a1.08,1.08,0,0,0,1.047.813h1.521a1.082,1.082,0,0,0,1.047-.813l.172-.675a1.049,1.049,0,0,1,.636-.732c.16-.059.319-.125.474-.195a1.05,1.05,0,0,1,.962.07l.6.354a1.079,1.079,0,0,0,1.315-.165l1.075-1.075a1.08,1.08,0,0,0,.165-1.315l-.354-.6a1.045,1.045,0,0,1-.07-.962q.105-.233.195-.474a1.048,1.048,0,0,1,.732-.636l.675-.172a1.08,1.08,0,0,0,.813-1.047v-1.52A1.081,1.081,0,0,0,3144.721,1409.357Zm-5.964,4.224a3.419,3.419,0,1,1,0-4.835A3.417,3.417,0,0,1,3138.757,1413.582Z" transform="translate(-3102.638 -594.385)" fill="rgba(0,0,0,0)" stroke="#5d7d73" stroke-linecap="round" stroke-width="1.5"/>
  </g>
</svg>
