<svg xmlns="http://www.w3.org/2000/svg" width="10.372" height="9.876" viewBox="0 0 11.372 10.876"><g id="Stars" transform="translate(-21.588 -396.853)"><path id="Path_4941" data-name="Path 4941" d="M27.832,397.2l.988,1.966a1.932,1.932,0,0,0,1.436,1.043l2.172.33a.625.625,0,0,1,.346,1.062l-1.565,1.55a1.934,1.934,0,0,0-.547,1.686L31.018,407a.625.625,0,0,1-.9.656l-1.956-1.008a1.933,1.933,0,0,0-1.77,0l-1.956,1.008a.625.625,0,0,1-.9-.656l.356-2.168a1.934,1.934,0,0,0-.547-1.686l-1.565-1.55a.625.625,0,0,1,.346-1.062l2.172-.33a1.932,1.932,0,0,0,1.436-1.043l.988-1.966A.624.624,0,0,1,27.832,397.2Z" fill="#ffd817" fill-rule="evenodd"></path></g></svg>