<svg xmlns="http://www.w3.org/2000/svg" xmlns:xlink="http://www.w3.org/1999/xlink" width="118.016" height="55.217" viewBox="0 0 118.016 55.217">
  <defs>
    <linearGradient id="linear-gradient" x1="-0.019" y1="1.021" x2="1.781" y2="0.206" gradientUnits="objectBoundingBox">
      <stop offset="0" stop-color="#cfd1a7"/>
      <stop offset="1" stop-color="#d6b085"/>
    </linearGradient>
  </defs>
  <g id="TE_Logo_S" data-name="TE Logo S" transform="translate(-237.825 -201.166)">
    <g id="Group_10033" data-name="Group 10033" transform="translate(237.825 201.166)">
      <g id="Group_10027" data-name="Group 10027" transform="translate(0.371 32.989)">
        <g id="Group_10026" data-name="Group 10026">
          <path id="Path_2408" data-name="Path 2408" d="M253.133,596.331c5.823,0,10.087,4.346,10.21,10.538v.205a.194.194,0,0,1-.205.205H246.326c-.164,0-.2.082-.164.2a10.2,10.2,0,0,0,15.335,6.6.181.181,0,0,1,.205.041l.205.205a.336.336,0,0,1,0,.287,12.471,12.471,0,0,1-8.324,3.034c-5.9,0-11.317-4.059-11.317-10.62A10.58,10.58,0,0,1,253.133,596.331Zm-6.93,9.718h13.449c.123,0,.164-.041.164-.164.779-3.977-1.722-8.2-6.356-8.2-4.838,0-7.422,3.649-7.422,8.16C246.039,605.967,246.08,606.049,246.2,606.049Z" transform="translate(-242.267 -596.331)" fill="#dccc9f"/>
          <path id="Path_2409" data-name="Path 2409" d="M514.367,598.951c0-.123.082-.164.205-.164H518.1c.123,0,.164.041.164.164v2.583c0,.164.164.287.287.164a12.445,12.445,0,0,1,7.422-2.911c2.993,0,4.674.861,5.495,3.321.041.205.123.246.287.082a12.477,12.477,0,0,1,8.078-3.4c4.551,0,6.069,2.214,6.069,8.57v12.137a.194.194,0,0,1-.205.205h-3.526c-.123,0-.164-.082-.164-.205V607.6c0-4.633-.9-7.012-4.018-7.012a8.332,8.332,0,0,0-6.11,3.362c0,.082,0,.123.041.164a25,25,0,0,1,.164,3.239v12.137a.194.194,0,0,1-.205.205h-3.526c-.123,0-.164-.082-.164-.205V607.6c0-4.633-.9-7.012-4.018-7.012a8.119,8.119,0,0,0-5.863,3.034.15.15,0,0,0-.041.123v15.745c0,.123-.041.205-.164.205h-3.526a.194.194,0,0,1-.205-.205Z" transform="translate(-491.651 -598.582)" fill="#dccc9f"/>
        </g>
      </g>
      <g id="Group_10029" data-name="Group 10029" transform="translate(86.484 4.223)">
        <g id="Group_10028" data-name="Group 10028">
          <path id="Path_2410" data-name="Path 2410" d="M1273.782,251.92c0-.123.082-.164.205-.164h3.526c.123,0,.164.041.164.164V254.5c0,.164.164.287.287.164a12.447,12.447,0,0,1,7.422-2.911c2.994,0,4.675.861,5.495,3.321.041.205.123.246.287.082a12.478,12.478,0,0,1,8.078-3.4c4.552,0,6.069,2.214,6.069,8.57v12.137a.194.194,0,0,1-.205.205h-3.526c-.123,0-.164-.082-.164-.205V260.572c0-4.633-.9-7.012-4.018-7.012a8.332,8.332,0,0,0-6.11,3.362c0,.082,0,.123.041.164a25.1,25.1,0,0,1,.164,3.239v12.137a.194.194,0,0,1-.205.205h-3.526c-.123,0-.164-.082-.164-.205V260.572c0-4.633-.9-7.012-4.018-7.012a8.119,8.119,0,0,0-5.864,3.034.152.152,0,0,0-.041.123v15.745c0,.123-.041.205-.164.205h-3.526a.194.194,0,0,1-.205-.205Z" transform="translate(-1273.782 -251.756)" fill="#dccc9f"/>
        </g>
      </g>
      <g id="Group_10030" data-name="Group 10030" transform="translate(83.938 33.018)">
        <path id="Path_2411" data-name="Path 2411" d="M1243.739,611.575a.176.176,0,0,1,.287.082l.246.7c1.64,3.321,5.536,4.756,9.062,4.428,1.517-.123,3.321-.656,3.854-2.255a1.767,1.767,0,0,0,.164-.9c0-4.715-13.327-4.8-13.327-11.645,0-3.732,4.387-5.167,7.463-5.289a7.931,7.931,0,0,1,6.889,2.829,8.647,8.647,0,0,1,1.353,2.583c.041.123,0,.164-.082.2l-.328.164c-.124.041-.205.041-.246-.082-.123-.369-.2-.533-.2-.574a7.312,7.312,0,0,0-2.5-2.747,7.827,7.827,0,0,0-5.659-1.148c-1.435.205-3.075,1.189-3.075,2.829,0,4.593,13.449,4.838,13.449,11.768,0,3.526-3.772,5-6.725,5.331a12.268,12.268,0,0,1-6.642-.943,8.134,8.134,0,0,1-4.428-4.879.314.314,0,0,1,.082-.205Z" transform="translate(-1243.288 -596.679)" fill="#dccc9f"/>
      </g>
      <g id="Group_10032" data-name="Group 10032" transform="translate(0 0)">
        <g id="Group_10031" data-name="Group 10031">
          <path id="Path_2412" data-name="Path 2412" d="M244.058,201.289a.189.189,0,0,1,.2-.123h.246c.123,0,.2.041.2.164v3.936a.194.194,0,0,0,.205.205H249.1c.123,0,.205.041.205.164v.861a.194.194,0,0,1-.205.205h-4.182c-.123,0-.205.041-.205.164V221.5c0,1.8.41,3.485,2.542,3.485,1.148,0,2.3-.779,2.952-2.46.041-.123.123-.123.246-.082l.533.164a.172.172,0,0,1,.123.246,4.875,4.875,0,0,1-5.085,3.526c-3.608,0-5.207-2.173-5.207-5.617v-13.9c0-.123-.041-.164-.164-.164H238.03a.194.194,0,0,1-.2-.205v-.861c0-.123.041-.164.164-.164C241.064,204.938,243.278,204.159,244.058,201.289Z" transform="translate(-237.825 -201.166)" fill="#dccc9f"/>
          <path id="Path_2413" data-name="Path 2413" d="M406.063,251.461c-.123-2.5-.82-5.248-3.608-5.781-2.993-.574-6.438,1.353-8.078,3.854a.2.2,0,0,1-.369-.123v-1.886a.312.312,0,0,1,.082-.164,13.784,13.784,0,0,1,7.135-3.157,9.84,9.84,0,0,1,5.9.943c2.747,1.435,2.829,5.331,2.829,7.955v12.342a.194.194,0,0,1-.205.205h-3.362c-.123,0-.164-.082-.164-.205v-3.116l-.082.041a12.188,12.188,0,0,1-8.324,3.362c-3.649,0-6.274-1.886-6.274-5.166,0-6.15,10.128-5.781,14.433-8.939A.31.31,0,0,0,406.063,251.461Zm-6.479,12.752a7.984,7.984,0,0,0,6.479-3.485.151.151,0,0,0,.041-.123v-7.422c0-.164-.164-.287-.287-.164-4.059,2.419-10.046,2.542-10.046,7.463C395.771,262.942,397.248,264.213,399.585,264.213Z" transform="translate(-378.715 -240.513)" fill="#dccc9f"/>
          <path id="Path_2414" data-name="Path 2414" d="M646.7,251.756h3.444c.123,0,.205.041.205.164V254.5c0,.164.164.287.287.164A14.757,14.757,0,0,1,659,251.756c4.961,0,6.315,2.214,6.315,8.57v12.137a.194.194,0,0,1-.205.205h-3.526c-.123,0-.164-.082-.164-.205V260.572c0-3.28-.082-6.971-4.305-6.971a10.085,10.085,0,0,0-6.725,2.993.151.151,0,0,0-.041.123v15.745a.194.194,0,0,1-.205.205h-3.485a.194.194,0,0,1-.205-.205c0-5.74.041-17.386.041-20.543C646.5,251.8,646.58,251.756,646.7,251.756Z" transform="translate(-612.344 -247.533)" fill="#dccc9f"/>
        </g>
      </g>
    </g>
    <path id="Path_2415" data-name="Path 2415" d="M951.874,282.147l-.051.133a33.507,33.507,0,0,0-1.74,18.6c.858-2.649,2.494-4.589,4.011-6.853a49.431,49.431,0,0,1,6.4-7.059c10.66-10.651,7.351-25.612.763-37.251,1.573,2.779-5.22,8.273-7,10.076-4.122,4.181-8.56,8.757-9.7,14.282-1.245,6.013,1.008,12,2.563,17.784,0,0,3.023-14.4,11.155-19.509C955.038,274.378,953.186,278.7,951.874,282.147Z" transform="translate(-647.398 -44.495)" fill="url(#linear-gradient)"/>
  </g>
</svg>
